<svg id="visual" viewBox="0 0 1730 556.36" width="1730" height="556.36" xmlns="http://www.w3.org/2000/svg" xmlns:xlink="http://www.w3.org/1999/xlink" version="1.1"><rect x="0" y="0" width="1730" height="556.36" fill="#001220"></rect><defs><linearGradient id="grad1_0" x1="67.8%" y1="100%" x2="100%" y2="0%"><stop offset="-12.18994895391473%" stop-color="#001220" stop-opacity="1"></stop><stop offset="112.18994895391474%" stop-color="#001220" stop-opacity="1"></stop></linearGradient></defs><defs><linearGradient id="grad2_0" x1="0%" y1="100%" x2="32.2%" y2="0%"><stop offset="-12.18994895391473%" stop-color="#001220" stop-opacity="1"></stop><stop offset="112.18994895391474%" stop-color="#001220" stop-opacity="1"></stop></linearGradient></defs><g transform="translate(1730, 556.36)"><path d="M-500.7 0C-486.6 -68.5 -472.4 -136.9 -432.4 -179.1C-392.3 -221.2 -326.4 -237.1 -287.1 -287.1C-247.8 -337.1 -235 -421.3 -191.6 -462.6C-148.2 -503.9 -74.1 -502.3 0 -500.7L0 0Z" fill="#FBAE3C"></path></g><g transform="translate(0, 0)"><path d="M500.7 0C495 65.5 489.4 131.1 462.6 191.6C435.9 252.2 388.1 307.8 331.6 331.6C275.2 355.5 210.2 347.6 153.5 370.5C96.7 393.4 48.4 447 0 500.7L0 0Z" fill="#FBAE3C"></path></g></svg>